<svg xmlns="http://www.w3.org/2000/svg" viewBox="0 0 75 75"><path fill="#11d1cc" d="M50.5 29.3l.7-.5v.8c0 .2.1.5.3.7l.7.5-.8.2c-.2.1-.5.2-.6.6l-.2.8-.6-.6c-.2-.2-.4-.3-.7-.3h-.8l.5-.7c.2-.2.2-.5.2-.8l-.2-.8.8.2c.2.2.5.1.7-.1zm-2.6-2.2c-.3-.1-.7 0-.8.2-.2.2-.3.6-.2.8l.7 2-1.2 1.7c-.2.2-.2.6-.1.9.2.2.4.4.8.5h2.1l1.2 1.8c.2.2.4.3.7.3H51c.3-.1.6-.2.7-.6l.7-2 2-.6c.3-.1.5-.3.6-.7.1-.3-.1-.7-.3-.8L53 29.4l.1-2.1c0-.3-.2-.6-.4-.8-.2-.2-.6-.1-.9.1L50 27.8l-2.1-.7zm-4-10.4c.2-.1.4-.3.5-.6l.3-1.9 1.3 1.4c.2.2.4.3.8.2l1.9-.2-1 1.7c-.2.2-.2.5 0 .8l.8 1.8-1.9-.3c-.2-.1-.6 0-.8.2L44.5 21l-.2-1.9c0-.2-.2-.5-.4-.7l-1.8-.9 1.8-.8zm-4.1 1.4l2.8 1.5.3 3.2c0 .3.2.6.5.7.1 0 .2.1.2.1.2 0 .4-.1.6-.2l2.3-2.2 3.2.7c.3.1.7-.1.8-.3.2-.2.2-.6.1-.8l-1.3-2.9 1.6-2.8c.2-.2.2-.6 0-.9-.2-.2-.5-.4-.8-.3l-3.1.3-2.2-2.4c-.2-.2-.5-.3-.8-.2s-.5.3-.6.7l-.6 3.2-2.9 1.3c-.2.2-.5.4-.5.8s.2.3.4.5zm-5.1 21c0-.3.2-.6.6-.6s.6.2.6.6-.2.6-.6.6c-.4 0-.6-.4-.6-.6zm2.8 0c0-1.2-1-2.2-2.2-2.2s-2.2 1-2.2 2.2 1 2.2 2.2 2.2 2.2-1.1 2.2-2.2zM58 20c.7 0 1.2.6 1.2 1.2s-.6 1.2-1.2 1.2-1.2-.6-1.2-1.2.4-1.2 1.2-1.2zm0 4.2c1.6 0 2.9-1.3 2.9-2.9 0-1.6-1.3-2.9-2.9-2.9-1.6 0-2.9 1.3-2.9 2.9 0 1.5 1.2 2.9 2.9 2.9zm-7.8 19c1.2 1.6.8 2.9.1 3.5-.7.6-1.8.8-2.8-.3-1.2-1.4-.9-3.3-.2-4.7.1-.1.1-.2.2-.2 1.1.3 2 .8 2.7 1.7zm-8.8 6c-.3.3-.8.7-1.3.8-.5.2-1.2.2-1.8.2-2.8 0-6.2-1.6-9.2-4.2l-.3-.3c-.3-.2-.6-.6-.9-.8l-.8-.8c-.1-.1-.2-.2-.2-.3-.2-.2-.3-.3-.5-.6-.1-.2-.2-.2-.3-.4-.2-.2-.2-.3-.4-.5-.1-.2-.2-.2-.2-.4-.1-.2-.2-.3-.3-.5-.1-.2-.2-.2-.2-.4-.2-.2-.2-.4-.3-.6-.1-.1-.1-.2-.2-.2-.2-.3-.3-.6-.5-.9 0-.1-.1-.2-.1-.2-.1-.2-.2-.5-.3-.8 0-.1-.1-.2-.1-.2-.1-.2-.2-.4-.2-.7 0-.1-.1-.2-.1-.2-.1-.2-.2-.5-.2-.7 0-.1 0-.1-.1-.2-.1-.2-.1-.5-.2-.8v-.1c-.1-.6-.1-1.1 0-1.6v-.1c0-.2.1-.4.1-.6 0-.1.1-.2.1-.2.2-.7.5-1.2.9-1.6.8-.8 1.8-1.1 3.1-1.1.3 0 .7 0 1 .1-.8 1.7-.8 2.8-.8 3.2 0 .5.3.8.8.8.4 0 .8-.3.8-.8 0-.2.1-1.3.8-2.9 1.1.3 2.2.8 3.3 1.4.2.8.5 1.6 1 2.2l.1.1c.2.2.2.3.4.4.1 0 .1.1.2.1.2.2.3.2.5.3.1 0 .2.1.2.1.2.1.3.2.6.2.1 0 .2.1.2.1.2.1.4.2.7.2h.2c.2 0 .5.1.8.1h.2c1.4 1.4 2.5 3 3.3 4.6-2.1.9-4 2.4-5.5 4.4-.7.4-.7 1-.3 1.2.3.2.9.2 1.2-.2 1.4-1.8 3.1-3.1 4.9-3.9 1.3 3.1 1.4 5.9-.1 7.3zM11.2 61.8c-.2.1-.2 0-.3-.1s0-.2 0-.2l1.1-2.6c.7.7 1.5 1.2 2.6 1.6l-3.4 1.3zm11.1-21.6c-.8-.7-1.2-1.4-1.8-2.3l.5-1.2c.3 1.2.8 2.4 1.3 3.5zm-4.8 19c-2.6 0-4.4-1.1-4.8-2.2l1.2-3c1.2 2.1 3.3 3.4 6.2 4.2l-2.6 1zm5.6-2.2c-3.1-.2-6.9-1.4-8.3-5.1l.9-2.2c2.2 3.5 6.8 5.1 10.7 5.9L23.1 57zm6.2-2.6c-3.4-.4-11-1.9-12.8-6.8l1.5-3.8c2.8 4.9 9.3 7.9 15.8 8.7l-4.5 1.9zM27.7 47l.2.2c.3.2.7.6 1 .8l.2.2c.3.2.6.4.9.7.1.1.2.1.2.2.3.2.7.4 1 .7.1.1.2.1.2.2.3.2.7.4 1 .6h.1c.3.2.7.3 1.1.5 0 0 .1 0 .1.1-7.3-.8-13-4.8-14.7-9l.8-2.1c1.1 1.6 2.7 2.8 4.7 3.8.7.8 1.3 1.7 2.2 2.5.3 0 .6.4 1 .6zm9.5-18.8c1.7 0 3.1 1.3 3.1 3.1 0 1.5-1.2 2.8-2.7 3-.2 0-.2.1-.4.1s-.4 0-.6-.1h-.2c-.2 0-.2-.1-.4-.2 0 0 0-.1-.1-.1-.1-.1-.2-.1-.3-.2-.1-.1-.2-.1-.2-.2-.1-.1-.2-.1-.2-.2l-.2-.2c0-.1-.1-.1-.1-.2-.1-.2-.2-.2-.2-.4-.2-.3-.2-.7-.3-1.1v-.2c-.2-1.7 1.2-3.1 2.8-3.1zM30 22.6c-.7.8-1.4 1.2-2.1 1.1-.4-.1-.8-.3-.9-.8-.1-.2 0-.5.2-.7.4-.5.9-.6 1.3-.6.2 0 .3 0 .5.1.4.1.9.3 1.2.7-.1 0-.2.1-.2.2zm-1-5.3c-.5.2-1.2.4-2 0-.3-.2-.5-.6-.4-.9.2-.4.7-.8 1.9-.8h.5c.3 0 .8.3 1.2.9-.4.4-.8.7-1.2.8zm36.7 25.9c-.2-.4-.8-.5-1.2-.3-1.8 1-3.1-.1-5.4-2.1-1.7-1.4-3.6-3.1-6-3.6-2.6-.5-4.8.7-6.2 2.2-.4-.1-.8-.1-1.2-.1h-.1c-1 0-2.1.2-3.1.5-.8-1.5-1.8-3-3.2-4.4 1.6-.8 2.7-2.4 2.7-4.2 0-2.6-2.1-4.8-4.8-4.8-2.2 0-4.2 1.6-4.6 3.7-.8-.4-1.7-.8-2.4-1 .3-.5.8-1.1 1.2-1.7 1.2-1.3 1.7-2.9 1.2-4.4-.1-.3-.2-.7-.5-1 .8-1.8.7-3.8.1-5.2.8-1 1.4-2.2 1.8-3.6.1-.4-.2-.9-.6-1-.4-.1-.9.2-1 .6-.2.9-.6 1.8-1.1 2.4-.6-.8-1.4-1.2-2.2-1.3-2.6-.2-3.8.8-4.2 2-.3 1.1.2 2.2 1.2 2.8 1 .6 2.2.6 3.5.1.4-.2.8-.4 1.2-.8.2.8.2 1.7 0 2.6-.5-.3-1.1-.6-1.7-.8-1.3-.2-2.6.1-3.4 1.1-.6.7-.8 1.5-.5 2.3.3.9 1.2 1.7 2.2 1.8.8.2 2.2.1 3.6-1.5.2.9-.1 1.8-.8 2.7-.8.8-1.3 1.6-1.8 2.3-.7-.1-1.2-.2-1.8-.2-1.8 0-3.2.6-4.3 1.6-.5.5-.9 1.2-1.2 1.9l-11.8 29c-.2.6-.2 1.2.2 1.8.3.6 1 .8 1.6.8.2 0 .5-.1.8-.2L29.7 56l10.9-4.5c.8-.2 1.4-.7 1.9-1.2 2-2 2.1-5.3.6-8.9.8-.2 1.6-.3 2.3-.3h.2c-1.2 2.2-.9 4.7.5 6.3.8.9 1.8 1.2 2.8 1.2.8 0 1.7-.3 2.2-.8 1.3-1.2 2-3.4.2-5.8-.8-.9-1.7-1.7-2.8-2.1 1.1-.9 2.5-1.4 4.1-1.1 2 .4 3.7 1.8 5.2 3.2 2.2 1.9 4.5 3.8 7.3 2.2.7 0 .8-.5.6-1z"></path></svg>