<svg xmlns="http://www.w3.org/2000/svg" viewBox="0 10 110 110"><path fill="#11d1cc" d="M60.1 45.6l-8.4-8.4c-.1-.1-.3-.2-.5-.3-.1 0-8.4-2.6-9.6-9-.1-.5-.6-.9-1.1-.9h-.1l-4.1.4c-.2 0-.4.1-.6.3-1 .9-4.1 3.2-6.4 3.2-.8 0-1.3-.2-1.8-.8-.1-.2-.4-1.3 1.7-3.5 3.8-4 5.4-4.7 5.4-4.7h.1s2.1-.9 4.2-.9c.4 0 .7 0 1 .1 1.8.3 8.6 3.9 12.7 6.2.3.2.6.2.9.1l12.2-4.8 6.4 17.1-12 5.9zm-1.6 4.2c-.6.6-1.7.7-2.4.6l-8.6-7.8c-.5-.4-1.2-.4-1.6.1-.4.5-.4 1.2.1 1.6l8.3 7.5c-.1 1-.3 1.7-.9 2.2-.7.7-1.7.8-2.3.9L43 47.2c-.4-.4-1.2-.4-1.6 0-.4.4-.4 1.2 0 1.6l7.8 7.4c-.2.8-.5 1.4-1.1 1.8-.5.4-1.2.5-1.7.5 0 0 0-.1-.1-.1l-7-6.7c-.4-.4-1.2-.4-1.6 0-.4.4-.4 1.2 0 1.6l6.1 5.8v.1c-.2 1-.6 1.2-.8 1.2-.9.4-2.4-.3-2.9-.6l-3.5-2.5.3-3.2-.1-.2c-.7-2.5-2.2-3.6-3.4-3.9-1.3-2.7-3.1-3.1-4.2-3.1-.3 0-.6 0-.8.1-.7-2.4-2.3-2.8-3.2-2.8-1.1 0-2.2.6-2.9 1.1-1-1.1-2.1-1.7-3.2-1.7-1.2 0-2.3.7-3.2 1.9L3 36.3l10-15.2c1.4 1 4.1 2.8 7.3 4.4.3.2.7.2 1 0 2.4-1.3 5.8-2.2 8.5-2.8-.7.6-1.5 1.4-2.4 2.3-3.7 3.8-2.1 6.2-1.8 6.5.9 1 2.1 1.6 3.6 1.6 3.2 0 6.6-2.7 7.6-3.5l2.7-.3c1.9 6.4 9.1 9.1 10.6 9.7l8.8 8.8c.1.1.1.1.2.1.1.8-.1 1.5-.6 1.9zm-24 9.6c0 .2-.1.6-.3.8 0 0-.2.2-.5.2h-.3c-1.5-.2-2.4-1.4-2.7-1.7-.4-2.1 0-4.4 1-5.6.4-.4.8-.7 1.2-.7.2 0 1.3.1 1.9 2.1l-.4 4.7.1.2zm-6.7-.8c-1 0-1.7-1.3-2.1-2.4-.4-2.2 1.8-5.4 2.9-6.6.2-.1.5-.2 1-.2.7 0 1.3.4 1.8 1.1-.5.2-.9.6-1.3 1.1-1.3 1.6-1.9 4.3-1.6 6.9-.3.1-.5.1-.7.1zm-7-5.4c-.3-1.7.7-3.4 1.6-4.6l.8-.7c.5-.5 1.5-1.2 2.3-1.2.6 0 1 .9 1.2 1.7-1 1.1-3.2 4.2-3.3 7.2-.2 0-.4.1-.6.1-.4 0-1.5 0-2-2.5zM17 50.1c-.2-.5-.2-1 .1-1.6.7-1.5 1.5-2.4 2.2-2.4.4 0 .9.3 1.5.9-.9 1.1-2 2.8-2.3 4.7-.5-.5-1.2-1-1.5-1.6zm57.5-10.2l-7-19.1c-.1-.3-.3-.6-.5-.7-.3-.1-.6-.2-.9-.1l-12.8 5c-2.2-1.2-10.4-5.8-13-6.2-.4-.1-.9-.1-1.4-.1-2.2 0-4.4.8-5 1-1.3.2-8.3 1.1-13.1 3.4-4.1-2.1-7.4-4.6-7.4-4.6-.2-.2-.6-.3-.9-.2-.3.1-.6.2-.7.5L.6 36c-.3.5-.2 1.2.3 1.5L15 47.7c-.4 1.1-.5 2.3 0 3.3.8 1.8 2.7 2.8 3.8 3.2.8 3.2 2.8 3.7 4 3.7.4 0 .8-.1 1.1-.1 1.1 2.5 2.7 3.1 3.9 3.1.6 0 1.1-.2 1.6-.3.7.8 1.9 1.8 3.8 2.1h.5c1.1 0 1.8-.5 2.2-.9.5-.5.7-1.2.8-1.7l2.5 1.8h.1c.2.1 1.8 1 3.5 1 .5 0 1-.1 1.5-.3.6-.3 1.3-.8 1.8-1.8 1 0 2.4-.1 3.6-.9.9-.6 1.6-1.6 1.9-2.8 1-.1 2.4-.4 3.5-1.4.8-.8 1.4-1.8 1.6-3 1 0 2.4-.2 3.5-1.2 1-.9 1.5-2.3 1.5-4l12.4-6.2c.3-.3.5-.9.4-1.4z"></path></svg>