<svg xmlns="http://www.w3.org/2000/svg" viewBox="0 0 110 110"><path fill="#11d1cc" d="M21.2,8.1c3.2,0.1,6.1,1.4,8.3,3.7c1.2,1.3,2,2.6,2.3,4.1c0.1,0.2,0.1,0.4,0.1,0.6c0,0,0,0.1,0,0.1c0.4,2.6-0.6,5.5-2.7,8.2 c0,0-0.1,0.1-0.1,0.1c-0.1,0.2-0.3,0.3-0.4,0.5c0,0.1-0.1,0.1-0.1,0.2c-0.1,0.2-0.3,0.3-0.4,0.5c-0.1,0.1-0.1,0.1-0.2,0.2 c-0.2,0.2-0.4,0.4-0.6,0.6c-3.7,3.5-7.8,4.9-11.2,3.9c-1.4-0.4-2.8-1.3-3.9-2.5c-2.1-2.2-3.3-5.1-3.3-8.2c0-3.3,1.3-6.3,3.7-8.6 C15,9.1,18.1,8,21.2,8.1z M37.7,26.1c-0.8,2.1-2.5,4.4-4.7,6.5c-2.3,2.2-4.6,3.7-6.8,4.4l-4.4-2.9c0.2-0.1,0.5-0.1,0.7-0.2 c0,0,0.1,0,0.1,0c0.3-0.1,0.6-0.2,0.8-0.3c0,0,0.1,0,0.1-0.1c0.3-0.1,0.6-0.2,0.8-0.4c0,0,0.1,0,0.1-0.1c0.3-0.1,0.6-0.3,0.9-0.4 c0,0,0,0,0,0c0.3-0.2,0.6-0.3,0.9-0.5c0,0,0.1,0,0.1-0.1c0.3-0.2,0.5-0.3,0.8-0.5c0.1,0,0.1-0.1,0.1-0.1c0.3-0.2,0.5-0.4,0.8-0.6 c0,0,0.1-0.1,0.1-0.1c0.3-0.2,0.5-0.4,0.8-0.6c0,0,0.1-0.1,0.1-0.1c0.3-0.2,0.5-0.5,0.8-0.7c0.2-0.2,0.4-0.4,0.6-0.6 c0-0.1,0.1-0.1,0.2-0.2c0.2-0.2,0.3-0.4,0.5-0.5c0,0,0-0.1,0.1-0.1c0.2-0.2,0.4-0.4,0.5-0.6c0-0.1,0.1-0.1,0.1-0.2 c0.1-0.2,0.3-0.4,0.4-0.5c0,0,0.1-0.1,0.1-0.1c0.2-0.2,0.3-0.4,0.5-0.6c0-0.1,0.1-0.1,0.1-0.1c0.1-0.2,0.2-0.4,0.4-0.5 c0-0.1,0.1-0.1,0.1-0.1c0.1-0.2,0.3-0.4,0.4-0.6c0,0,0-0.1,0.1-0.1c0.1-0.2,0.2-0.4,0.3-0.6c0-0.1,0.1-0.1,0.1-0.2 c0.1-0.2,0.2-0.4,0.3-0.7c0,0,0-0.1,0-0.1c0.1-0.2,0.2-0.4,0.2-0.6c0-0.1,0-0.1,0.1-0.2c0.1-0.2,0.2-0.4,0.2-0.7L37.7,26.1z M65.9,61.1c-0.3,0.7-1.2,2.1-2.6,3.4c-1.4,1.3-2.8,2.2-3.5,2.4L29.2,39.5c2.1-1,4.1-2.5,6.1-4.4c2-1.9,3.6-3.9,4.7-5.9L65.9,61.1z M10.3,8.8c-3.1,2.9-4.8,6.9-4.8,11.2c0,4,1.5,7.7,4.2,10.6c1.6,1.6,3.3,2.8,5.2,3.4l9.8,6.3l33,29.6c2.4,2.3,7.4-2.3,7.9-2.8 c1.4-1.3,3.8-4.1,3.8-6.2c0-0.8-0.3-1.3-0.6-1.6L41,24.8l-5.8-10.1c-0.5-1.9-1.6-3.7-3.1-5.4c-2.8-3-6.7-4.7-10.8-4.8 C17.2,4.4,13.3,5.9,10.3,8.8z"></path><path fill="#11d1cc" d="M38.7,40.7c-0.2,0.2-0.3,0.6,0,0.9l5.1,5.3c0.1,0.1,0.3,0.2,0.4,0.2c0.2,0,0.3-0.1,0.4-0.2l2-1.9c0.1-0.1,0.2-0.3,0.2-0.4 c0-0.1-0.1-0.3-0.2-0.4l-5.1-5.3c-0.1-0.1-0.3-0.2-0.4-0.2c-0.2,0-0.3,0-0.4,0.2L38.7,40.7z"></path></svg>