<svg xmlns="http://www.w3.org/2000/svg" viewBox="0 0 75 75"><path fill="#11d1cc" d="M18.2 45.9c-.4 0-.8-.1-1-.4L6.7 35.3c-1.2-1.2-1.7-3-1.1-4.6.5-1.6 1.9-2.8 3.6-3.1l14.4-2.1c.8-.1 1.6.4 1.7 1.3.1.8-.4 1.6-1.3 1.7L9.7 30.6c-.6.1-1 .5-1.2 1-.2.5 0 1.1.4 1.5l10.4 10.2c.6.6.6 1.5 0 2.1-.3.3-.7.5-1.1.5zM20.4 69.1c-.9 0-1.9-.3-2.6-.9-1.4-1-2.1-2.7-1.8-4.4l2.5-14.3c.1-.8.9-1.4 1.7-1.2.8.1 1.4.9 1.2 1.7L19 64.3c-.1.6.1 1.1.6 1.5.5.3 1.1.4 1.6.1L34 59.1c.7-.4 1.6-.1 2 .6.4.7.1 1.6-.6 2l-12.9 6.8c-.6.4-1.4.6-2.1.6zM54.6 69.1c-.7 0-1.4-.2-2.1-.5l-12.9-6.8c-.7-.4-1-1.3-.6-2s1.3-1 2-.6L53.9 66c.5.3 1.1.2 1.6-.1.5-.3.7-.9.6-1.5L53.6 50c-.1-.8.4-1.6 1.2-1.7.8-.1 1.6.4 1.7 1.2L59 63.8c.3 1.7-.4 3.4-1.8 4.4-.8.6-1.7.9-2.6.9zM56.8 45.9c-.4 0-.8-.2-1.1-.5-.6-.6-.6-1.5 0-2.1l10.4-10.2c.4-.4.6-1 .4-1.5-.2-.5-.6-.9-1.2-1l-14.4-2.1c-.8-.1-1.4-.9-1.3-1.7.1-.8.9-1.4 1.7-1.3l14.4 2.1c1.7.2 3.1 1.4 3.6 3.1.5 1.6.1 3.4-1.1 4.6L57.8 45.5c-.3.3-.6.4-1 .4zM46.6 25.2c-.6 0-1.1-.3-1.3-.8l-6.4-13c-.3-.5-.8-.8-1.3-.8s-1.1.3-1.3.8l-6.4 13c-.4.7-1.3 1-2 .7-.7-.4-1-1.3-.7-2l6.4-13c.8-1.5 2.3-2.5 4-2.5 1.7 0 3.3 1 4 2.5l6.4 13c.4.7.1 1.6-.7 2-.2.1-.4.1-.7.1z"></path></svg>