<svg xmlns="http://www.w3.org/2000/svg" viewBox="0 10 90 90"><path fill="#11d1cc" d="M40.9 46.7c-.4 0-.7-.2-.9-.5-.2-.5-.1-1.1.4-1.3 2.7-1.3 3.9-4.6 3.9-10 0-.5.4-1 1-1 .9 0 2-.3 2-1V29c0-1 0-1-1-1-.5 0-1-.4-1-1v-3.9c0-2.5-.6-4.3-1.8-5.3-1.3-1.1-3.5-1.3-6.4-.8-.5.1-1.1-.2-1.2-.8-.1-.5.2-1 .8-1.1 3.5-.7 6.2-.3 8 1.2 1.7 1.4 2.6 3.7 2.6 6.8v3c2 .4 2 1.9 2 2.8v3.9c0 1.3-.9 2.6-3 2.9-.2 5.7-1.8 9.2-5 10.8-.1.1-.2.2-.4.2zM56.7 46.7c-.4 0-.7-.2-.9-.5-.2-.5-.1-1.1.4-1.3 2.7-1.3 3.9-4.6 3.9-10 0-.3.1-.5.3-.7.2-.2.4-.3.7-.3.8 0 1.4-.2 1.8-.5.1-.1.2-.3.2-.5V29c0-1 0-1-1-1-.5 0-1-.4-1-1v-3.9c0-2.5-.6-4.3-1.8-5.3-1.3-1.1-3.4-1.3-6.3-.8-.5.1-1.1-.2-1.2-.8-.1-.5.2-1 .8-1.1 3.5-.7 6.2-.3 8 1.2 1.7 1.4 2.6 3.7 2.6 6.8v3c2 .4 2 1.9 2 2.8v3.9c0 .7-.3 1.4-.8 1.9-.4.4-1.1.8-2.2 1-.2 5.7-1.8 9.2-5 10.8-.2.1-.3.2-.5.2zM26.8 15.8c-1.6 0-3.9.4-6.4 2.2-.2.1-.4.2-.6.2-7.9 0-7.9 2.7-7.9 4.9V27c0 .4-.2.7-.6.9-.7.3-1.4.9-1.4 1.1v3.9c0 .7 1.1 1 2 1 .5 0 1 .4 1 1 0 4.9 4 10.7 8.9 10.7s8.9-5.9 8.9-10.7c0-.5.4-1 1-1 .9 0 2-.3 2-1V29c0-.2-.8-.8-1.4-1.1-.4-.2-.6-.5-.6-.9v-3.9c0-.2.1-.4.2-.6 1.1-1.3 1.4-2.6.8-3.8-.9-1.8-3.3-2.9-5.9-2.9zm-5.1 31.7c-5.8 0-10.4-6.1-10.8-11.8-2.1-.3-3-1.6-3-2.9v-3.9c0-1.2 1.2-2.1 2-2.5v-3.3c0-3.5 1.2-6.8 9.5-6.8 2.8-2 5.5-2.4 7.3-2.4 3.5 0 6.5 1.6 7.6 4 .9 1.8.6 3.8-.9 5.6v3c.8.4 2 1.3 2 2.6V33c0 1.3-.9 2.6-3 2.9-.3 5.5-4.9 11.6-10.7 11.6z"></path><path fill="#11d1cc" d="M1 61.2c-.5 0-1-.4-1-1v-2c0-5.7 4.6-9.8 10.9-9.8h2.4l2.8-4.2c.3-.5.9-.6 1.4-.3.5.3.6.9.3 1.4L14.6 50c-.2.3-.5.4-.8.4h-3c-5.2 0-8.9 3.2-8.9 7.8v2c.1.5-.4 1-.9 1zM42.4 61.2c-.5 0-1-.4-1-1v-2c0-4.6-3.6-7.8-8.7-7.8h-3c-.3 0-.6-.2-.8-.4l-3.2-4.6c-.3-.4-.1-1.1.3-1.4.4-.3 1.1-.2 1.4.3l2.9 4.2h2.4c6.3 0 10.7 4 10.7 9.8v2c0 .4-.4.9-1 .9zM58.2 61.2c-.5 0-1-.4-1-1v-2c0-4.6-3.6-7.8-8.7-7.8h-3c-.3 0-.6-.2-.8-.4l-3.2-4.6c-.3-.4-.2-1.1.3-1.4.5-.3 1.1-.2 1.4.3l2.9 4.2h2.4c6.3 0 10.7 4 10.7 9.8v2c0 .4-.4.9-1 .9zM74 61.2c-.5 0-1-.4-1-1v-2c0-4.6-3.6-7.8-8.7-7.8h-3c-.3 0-.6-.2-.8-.4l-3.2-4.6c-.3-.4-.2-1.1.3-1.4.5-.3 1.1-.2 1.4.3l2.9 4.2h2.4c6.3 0 10.7 4 10.7 9.8v2c0 .4-.4.9-1 .9z"></path></svg>