<svg xmlns="http://www.w3.org/2000/svg" viewBox="0 0 75 75"><path fill="#11d1cc" d="M39 36.3v-7.8c8.8-.4 17.2-4.1 23.3-10.5 4 5.1 6.5 11.4 6.7 18.2H39zm0 12.8c8.1.4 15.7 3.9 21.3 9.8-5.6 5.9-13.2 9.4-21.3 9.8V49.1zm-3 19.5c-8.1-.4-15.7-3.9-21.3-9.8 5.6-5.9 13.2-9.4 21.3-9.8v19.6zm0-40.1v7.8H6c.3-6.9 2.7-13.2 6.7-18.2 6.1 6.3 14.5 10 23.3 10.4zM51.5 9.2l1.2.6c.2.1.3.2.4.3.3.2.6.3.9.5.2.1.4.3.6.4.2.1.4.3.6.4.3.2.5.4.8.5.2.1.3.2.5.3.3.2.6.4.8.6.1.1.2.2.4.3.3.2.6.5.8.7l.3.3c.3.3.6.5.8.8l.3.3.4.4C54.7 21.5 47.1 25 39 25.4V6c4.3.2 8.5 1.3 12.4 3.2h.1zm-36.4 6.1l.3-.3c.3-.3.6-.5.8-.8l.3-.3c.3-.2.6-.5.8-.7.1-.1.2-.2.4-.3.3-.2.5-.4.8-.6.2-.1.3-.2.5-.3.3-.2.5-.4.8-.5.2-.1.4-.3.6-.4.2-.1.4-.3.6-.4.3-.2.6-.3.9-.5.1-.1.3-.2.4-.3l1.2-.6c.1 0 .1-.1.2-.1 3.8-1.9 8-3 12.3-3.2v19.5c-8.1-.4-15.7-3.9-21.3-9.8l.4-.4zM6 39.3h30v6.8c-8.9.4-17.3 4.2-23.5 10.6C8.8 51.9 6.4 45.8 6 39.3zm56.5 17.5C56.3 50.3 47.9 46.5 39 46.1v-6.8h30c-.4 6.5-2.8 12.6-6.5 17.5zm1.8-41l-.8-1c-.1-.1-.2-.3-.4-.4l-.3-.3c-.3-.3-.6-.7-.9-1l-.2-.2c-1.4-1.4-2.9-2.7-4.5-3.8-.2-.1-.3-.2-.5-.4s-.5-.3-.7-.5c-.3-.2-.5-.3-.8-.5-.2-.1-.4-.2-.6-.4-.3-.2-.6-.4-1-.5-.2-.1-.3-.2-.5-.3-.4-.2-.8-.4-1.1-.6-.1-.1-.3-.1-.4-.2-.4-.2-.9-.4-1.3-.5-.1 0-.2-.1-.3-.1-.5-.2-.9-.3-1.4-.5-.1 0-.2-.1-.3-.1-.5-.2-1-.3-1.5-.5-.1 0-.1 0-.2-.1-.6.1-1.1 0-1.6-.1h-.2c-.5-.1-1-.2-1.6-.3H43c-.5-.1-1-.2-1.6-.2h-.3c-.5-.1-1-.1-1.5-.1h-2.1S36.3 3 35.7 3h-.3c-.5 0-1 .1-1.5.1h-.3c-.5.1-1 .1-1.5.2h-.2c-.5.1-1.1.2-1.6.3h-.2c-.5.1-1 .2-1.6.4-.1 0-.1 0-.2.1-.5.1-1 .3-1.5.5-.1 0-.2.1-.3.1-.5.2-.9.3-1.4.5-.1 0-.2.1-.3.1-.4.2-.9.4-1.3.5-.2.2-.3.3-.5.3-.4.2-.8.4-1.1.6-.2.1-.3.2-.5.3-.3.2-.7.4-1 .5-.2.1-.4.2-.6.4-.3.1-.5.3-.8.4-.2.2-.5.3-.7.5-.2.1-.3.2-.5.4-1.6 1.1-3.1 2.4-4.5 3.8l-.2.2c-.3.3-.6.6-.9 1l-.3.3-.4.4-.9 1c-4.8 5.9-7.7 13.5-7.7 21.7 0 19.1 15.5 34.6 34.6 34.6s34.6-15.5 34.6-34.6c0-8.3-2.9-15.9-7.8-21.8z"></path></svg>