<svg xmlns="http://www.w3.org/2000/svg" viewBox="0 13 100 100"><path fill="#11d1cc" d="M37.5 61.1c-12.2 0-22.1-9.9-22.1-22.1s9.9-22.1 22.1-22.1c5.1 0 10.1 1.8 14.1 5 2.5 2 4.5 4.6 5.9 7.5.3.5 0 1.2-.5 1.5-.5.3-1.2 0-1.5-.5-1.3-2.6-3.1-4.9-5.2-6.8-3.5-2.9-8-4.6-12.7-4.6-10.9 0-19.9 8.9-19.9 19.9s8.9 19.9 19.9 19.9c7.7 0 14.8-4.5 18.1-11.6.2-.6.9-.8 1.5-.5.6.2.8.9.5 1.5-3.7 7.9-11.6 12.9-20.2 12.9z"></path><path fill="#11d1cc" d="M20.8 53.3c-6.6 0-11.3-1.8-12.5-5.2-1.4-3.7 1.4-8.4 7.6-13.1.5-.4 1.2-.3 1.6.2.4.5.3 1.2-.2 1.6-5.2 4-7.8 7.9-6.9 10.6 1.5 4.1 11.9 5.5 26.7.9.6-.1 1.2.1 1.4.8.1.6-.1 1.2-.8 1.4-6.3 1.9-12.1 2.8-16.9 2.8zM65.7 28.4c-.4 0-.9-.3-1.1-.8-1-2.6-5.5-4-12.1-3.7h-1.7c-.6 0-1.1-.5-1.1-1.1 0-.6.5-1.1 1.1-1.1h1.7c7.8-.4 12.9 1.4 14.2 5.2.2.6-.1 1.2-.7 1.4-.1.1-.1.1-.3.1z"></path><path fill="#11d1cc" d="M37.5 50.3c-.1 0-.3 0-.4-.1l-5.5-2.6c-.6-.2-.8-.9-.5-1.5.3-.6.9-.8 1.5-.5l5.5 2.6c.6.2.8.9.5 1.5-.3.4-.7.6-1.1.6z"></path><path fill="#11d1cc" d="M34.9 55.8c-.1 0-.3 0-.4-.1-.6-.2-.8-.9-.5-1.5l2.5-5.5c.3-.6.9-.8 1.5-.5.6.2.8.9.5 1.5L36 55.1c-.2.5-.6.7-1.1.7zM39.8 43.7l4.2 1.9 20.8-9.4c1.1-.5 2.6-1.1 2.7-1.5 0 0 0-.1-.1-.1-.1-.2-1.3-.6-2.7-.6-.5 0-.8.1-1 .1l-8.2 3.8c-.4.1-.8.1-1.2-.1-4.2-3.4-7.1-4-8.7-4-.3 0-.6 0-.9.1l4.9 5.2c.2.2.4.6.3.9-.1.3-.2.6-.5.8l-4.6 2.9c-.1.1-.4.1-.5.1l-4.5-.1zm4.1 4.3c-.1 0-.3 0-.4-.1l-9-4.1c-.4-.2-.8-.8-.6-1.3.1-.5.5-.9 1.1-.9l8.9-.3 3.2-1.9-5-5.4c-.2-.2-.3-.5-.3-.8 0-.3.1-.6.4-.8.1-.1 1.3-1.1 3.5-1.1 2.8 0 6 1.4 9.6 4.1l7.6-3.5c.4-.2 1.1-.3 1.9-.3 1.4 0 4.1.4 4.7 1.9.3.7.6 1.9-.8 3-.7.5-1.7 1.1-3 1.6l-21.4 9.7c-.1.2-.2.2-.4.2z"></path></svg>