<svg xmlns="http://www.w3.org/2000/svg" xmlns:xlink="http://www.w3.org/1999/xlink" viewBox="0 10 130 130"><defs><path id="a" d="M0 0H75V75H0z"></path></defs><clipPath id="b"><use xlink:href="#a" overflow="visible"></use></clipPath><path fill="none" stroke="#11d1cc" stroke-width="2.5" stroke-miterlimit="10" d="M70.6 19.9c-.3-1.1-1.9-2.1-2.9-2.6-2.3-1.1-5.1-1.1-7.6-1.3-3.1-.1-6.2-.1-9.3.3-4.4.7-8.8 1.4-13.3 1.7-4.5-.3-8.9-1.1-13.3-1.7-3.1-.4-6.2-.5-9.3-.3-2.5.1-5.2.2-7.6 1.3-1 .4-2.6 1.4-2.9 2.6-.3 1.1.4 2.6.7 3.7C6.6 30.8 8 38.8 16.3 40.5c9.1 1.9 14.3-2.6 17.9-10.3 1.4-2.9 2.4-4.4 3.4-5 .9.6 2 2.2 3.4 5 3.5 7.6 8.7 12.2 17.8 10.3 8.2-1.7 9.7-9.8 11.2-16.9C70.1 22.5 70.9 21 70.6 19.9zM58.6 50.5c6 1 4.5 5.8-1.9 4.4-7.8-1.8-11-9.2-19.3-4.4C29.2 45.6 26 53 18.2 54.8c-6.4 1.5-7.8-3.4-1.9-4.4-1.1-3.1-12 4.1-3.8 10.4 3.1 2.3 8.7 2.2 12.3 1.7 4.3-.6 8.9-4.8 12.5-5.2 3.7.4 8.3 4.6 12.5 5.2 3.7.5 9.2.7 12.3-1.7C70.6 54.6 59.7 47.5 58.6 50.5z" clip-path="url(#b)"></path></svg>