<svg xmlns="http://www.w3.org/2000/svg" viewBox="0 0 75 75"><path fill="#11d1cc" d="M37.6 33.7c.3.7.7 1.8.6 2.9 0 .3-.1.8-.4 1h-.5c-1.6 0-4.1-.5-5.8-1 2.3-.7 4.6-1.7 6.1-2.9zm-.2 6.4c.8 0 1.4 0 1.8-.3 1.9-1.2 1.9-3.8 1.3-5.8-.3-1-1.1-3.2-2.8-3.2-.5 0-.9.2-1.2.5-1.2 1.2-3.9 2.5-6.8 3.3-1.9.5-2.1 1.5-2 2.1.3 2.6 8.8 3.4 9.7 3.4z"></path><path fill="#11d1cc" d="M51.9 63.1c-.9 4.3-6.9 6.8-12 6.9-4.2.1-9.1-1.4-10.2-5.6l-6.2-24.9c3.8 2.7 9.8 4.3 16.8 4.3 7.1 0 13.3-1.7 17.1-4.4l-5.5 23.7zM23.3 28.4c.7 3.3.7 6.1.6 8-1.3-1.1-2.1-2.4-2.3-3.8.1-1.8.6-3.1 1.7-4.2zm-7-21.3c.6-1.2 2-2 3.3-2 1.4 0 2.5 1 3.3 2.7 2.1 7.8 6.3 13 11.2 18.2l-.2 2.5h-8c-1-5.2-3.3-11.1-9-17.5-.9-1.3-1.2-2.7-.6-3.9zm30.2 27.4H45v-2.2h1.5v2.2zm3.2 3.8h-1.3v-1.4h1.4l-.1 1.4zm-5.5 1.2h1.5v.8h-1.5v-.8zm9-1.3V36h.8v2.2h-.8zm-26.9-6.7h8.8c.7 0 1.2-.8 1.3-1.5l.1-1.5c2.1 2.2 4.3 4.4 6.5 6.9.2.3.4.5.6.7.1.1.3.2.4.4-1.1.1-2 1-2 2.2v2.2c0 .1-.1.1 0 .2h-1.6c-5.5 0-10.5-1.1-13.9-3v-.3c.1-1.5.2-4-.2-6.3zm13.3-7.1h.8c11.2 0 18.7 4.3 18.7 8.4 0 1.3-.5 2.5-2 3.7v-.6c0-1.2-1-2.1-2.2-2.1h-2.2c-.6 0-1.2.4-1.6.8-.3-.1-.6 0-.9 0h-.7v-2.3c0-1.2-1.2-2.2-2.4-2.2h-2.2c-.9 0-1.7.6-2 1.4-1.6-1.8-3.2-3.4-4.7-5-.6-.7-1.2-1.3-1.9-1.9 1.3-.3 2.3-.3 3.3-.2zm22 8.4c0-6.1-9.3-11-21.2-11h-.7c-1.4 0-3.2 0-5.4.4-4-4.4-7.2-8.9-8.9-15.2l-.1-.2c-1.1-2.7-3.2-4.3-5.6-4.3-2.3-.1-4.6 1.3-5.7 3.4-1.1 2.1-.7 4.5 1 6.6 4.1 4.7 6.4 9.2 7.6 13.2-2.3 1.6-3.5 3.9-3.5 7v.2c.1.9.4 1.7.8 2.5L27.3 65c1.2 4.7 5.9 7.5 12.3 7.5h.4c6.2-.1 13.2-3.2 14.4-8.8L61.1 35c.3-.7.5-1.5.5-2.2z"></path></svg>